<?xml version="1.0" encoding="UTF-8"?>
<svg version="1.1" xmlns="http://www.w3.org/2000/svg" width="48" height="48">
<path d="M0 0 C3.90787066 0.38609564 6.24584919 1.57367721 9.66088867 3.49926758 C10.53642143 3.98800606 10.53642143 3.98800606 11.42964172 4.48661804 C12.6556894 5.17422068 13.87833096 5.86792865 15.09765625 6.56738281 C16.95953999 7.63476528 18.83135991 8.68265729 20.70581055 9.7277832 C31.10653345 15.58775437 31.10653345 15.58775437 33.27416992 18.32348633 C33.77416992 21.26098633 33.77416992 21.26098633 33.27416992 24.32348633 C28.11100147 29.01949163 21.88021061 32.16164236 15.83666992 35.57348633 C14.15734375 36.54801758 14.15734375 36.54801758 12.4440918 37.54223633 C11.35805664 38.15583008 10.27202148 38.76942383 9.15307617 39.40161133 C7.67689819 40.24320801 7.67689819 40.24320801 6.17089844 41.10180664 C2.93209654 42.46775394 0.75456 42.71173701 -2.72583008 42.32348633 C-5.32888899 39.72042741 -4.97407985 37.90070094 -5.00372314 34.35449219 C-4.99967468 33.53988525 -4.99562622 32.72527832 -4.99145508 31.88598633 C-4.99336853 31.05010986 -4.99528198 30.2142334 -4.99725342 29.35302734 C-4.99861543 27.58438822 -4.99491784 25.8157391 -4.98657227 24.04711914 C-4.97587283 21.33432639 -4.98646684 18.62219589 -4.99926758 15.90942383 C-4.99794599 14.19327653 -4.9953836 12.47712964 -4.99145508 10.76098633 C-4.99550354 9.94637939 -4.999552 9.13177246 -5.00372314 8.29248047 C-4.93930494 0.58616919 -4.93930494 0.58616919 0 0 Z " fill="#037AC1" transform="translate(10.725830078125,2.676513671875)"/>
<path d="M0 0 C7.78378378 2.59459459 7.78378378 2.59459459 11 6 C11.625 9 11.625 9 11 12 C5.82012607 16.68503325 -0.3887366 19.83520758 -6.4375 23.25 C-8.11682617 24.22453125 -8.11682617 24.22453125 -9.83007812 25.21875 C-10.91611328 25.83234375 -12.00214844 26.4459375 -13.12109375 27.078125 C-14.1052124 27.63918945 -15.08933105 28.20025391 -16.10327148 28.77832031 C-19.357587 30.1508104 -21.50471998 30.46913187 -25 30 C-25.66 29.01 -26.32 28.02 -27 27 C-18.09 18.09 -9.18 9.18 0 0 Z " fill="#ED4555" transform="translate(33,15)"/>
<path d="M0 0 C5.27850657 0.79587239 9.32323231 3.37488978 13.8984375 6.03125 C14.82527344 6.55589844 15.75210937 7.08054687 16.70703125 7.62109375 C18.98590255 8.91323727 21.25740604 10.21676106 23.5234375 11.53125 C22.61221023 12.63990985 21.69417091 13.74297219 20.7734375 14.84375 C20.26296875 15.45863281 19.7525 16.07351562 19.2265625 16.70703125 C17.5234375 18.53125 17.5234375 18.53125 13.5234375 21.53125 C7.5834375 15.59125 1.6434375 9.65125 -4.4765625 3.53125 C-2.4765625 0.53125 -2.4765625 0.53125 0 0 Z " fill="#34A044" transform="translate(10.4765625,2.46875)"/>
<path d="M0 0 C4.46619746 1.24638069 7.78175791 2.59244956 11 6 C11.625 9 11.625 9 11 12 C8.34270483 14.65729517 5.49283582 16.60286567 2 18 C1.01 18 0.02 18 -1 18 C-1 17.34 -1 16.68 -1 16 C-1.598125 15.731875 -2.19625 15.46375 -2.8125 15.1875 C-5.04593283 13.97506504 -6.49938199 13.05347727 -8 11 C-7.60562367 7.37477142 -6.03113312 5.70216222 -3.4375 3.25 C-2.79683594 2.63640625 -2.15617187 2.0228125 -1.49609375 1.390625 C-1.00238281 0.93171875 -0.50867187 0.4728125 0 0 Z " fill="#FECA41" transform="translate(33,15)"/>
</svg>
