<svg width="66" height="59" viewBox="0 0 66 59" fill="none" xmlns="http://www.w3.org/2000/svg">
<path d="M21.8001 58.08C18.5468 58.08 15.5868 57.3333 12.9201 55.84C10.2534 54.32 7.94677 52.2266 6.0001 49.56C4.0801 46.8933 2.6001 43.8133 1.5601 40.32C0.520098 36.8 9.77516e-05 33.04 9.77516e-05 29.04C9.77516e-05 25.04 0.520098 21.2933 1.5601 17.8C2.6001 14.28 4.0801 11.1866 6.0001 8.51998C7.94677 5.85331 10.2534 3.77331 12.9201 2.27997C15.5868 0.759974 18.5468 -2.67029e-05 21.8001 -2.67029e-05C25.0534 -2.67029e-05 28.0134 0.759974 30.6801 2.27997C33.3468 3.77331 35.6268 5.85331 37.5201 8.51998C39.4401 11.1866 40.9201 14.28 41.9601 17.8C43.0268 21.2933 43.5601 25.04 43.5601 29.04C43.5601 33.04 43.0268 36.8 41.9601 40.32C40.9201 43.8133 39.4401 46.8933 37.5201 49.56C35.6268 52.2266 33.3468 54.32 30.6801 55.84C28.0134 57.3333 25.0534 58.08 21.8001 58.08ZM21.8001 48.32C24.6534 48.32 27.0134 47.4133 28.8801 45.6C30.7468 43.7866 32.1334 41.4133 33.0401 38.48C33.9468 35.5466 34.4001 32.4 34.4001 29.04C34.4001 25.4933 33.9201 22.2666 32.9601 19.36C32.0001 16.4266 30.5868 14.0933 28.7201 12.36C26.8534 10.6266 24.5468 9.75998 21.8001 9.75998C19.6401 9.75998 17.7601 10.2933 16.1601 11.36C14.5868 12.4 13.2801 13.8266 12.2401 15.64C11.2001 17.4533 10.4268 19.52 9.9201 21.84C9.41343 24.1333 9.1601 26.5333 9.1601 29.04C9.1601 32.3733 9.61343 35.52 10.5201 38.48C11.4534 41.4133 12.8534 43.7866 14.7201 45.6C16.6134 47.4133 18.9734 48.32 21.8001 48.32ZM56.1995 57.04V10.8H49.1595L51.7995 1.03997H65.9595V57.04H56.1995Z" fill="#F3F3F3"/>
</svg>
