<svg width="87" height="59" viewBox="0 0 87 59" fill="none" xmlns="http://www.w3.org/2000/svg">
<path d="M21.8001 58.08C18.5468 58.08 15.5868 57.3333 12.9201 55.84C10.2534 54.32 7.94677 52.2266 6.0001 49.56C4.0801 46.8933 2.6001 43.8133 1.5601 40.32C0.520098 36.8 9.77516e-05 33.04 9.77516e-05 29.04C9.77516e-05 25.04 0.520098 21.2933 1.5601 17.8C2.6001 14.28 4.0801 11.1866 6.0001 8.51998C7.94677 5.85331 10.2534 3.77331 12.9201 2.27997C15.5868 0.759974 18.5468 -2.67029e-05 21.8001 -2.67029e-05C25.0534 -2.67029e-05 28.0134 0.759974 30.6801 2.27997C33.3468 3.77331 35.6268 5.85331 37.5201 8.51998C39.4401 11.1866 40.9201 14.28 41.9601 17.8C43.0268 21.2933 43.5601 25.04 43.5601 29.04C43.5601 33.04 43.0268 36.8 41.9601 40.32C40.9201 43.8133 39.4401 46.8933 37.5201 49.56C35.6268 52.2266 33.3468 54.32 30.6801 55.84C28.0134 57.3333 25.0534 58.08 21.8001 58.08ZM21.8001 48.32C24.6534 48.32 27.0134 47.4133 28.8801 45.6C30.7468 43.7866 32.1334 41.4133 33.0401 38.48C33.9468 35.5466 34.4001 32.4 34.4001 29.04C34.4001 25.4933 33.9201 22.2666 32.9601 19.36C32.0001 16.4266 30.5868 14.0933 28.7201 12.36C26.8534 10.6266 24.5468 9.75998 21.8001 9.75998C19.6401 9.75998 17.7601 10.2933 16.1601 11.36C14.5868 12.4 13.2801 13.8266 12.2401 15.64C11.2001 17.4533 10.4268 19.52 9.9201 21.84C9.41343 24.1333 9.1601 26.5333 9.1601 29.04C9.1601 32.3733 9.61343 35.52 10.5201 38.48C11.4534 41.4133 12.8534 43.7866 14.7201 45.6C16.6134 47.4133 18.9734 48.32 21.8001 48.32ZM49.1595 57.04V48.32C50.8928 47.0133 52.9461 45.4 55.3195 43.48C57.6928 41.5333 60.1328 39.44 62.6395 37.2C65.1461 34.9333 67.4661 32.6666 69.5995 30.4C71.7328 28.1333 73.4661 25.9733 74.7995 23.92C76.1595 21.8666 76.8395 20.1066 76.8395 18.64C76.8395 17.0133 76.4395 15.5333 75.6395 14.2C74.8395 12.84 73.7728 11.76 72.4395 10.96C71.1328 10.16 69.6661 9.75998 68.0395 9.75998C66.4128 9.75998 64.9328 10.16 63.5995 10.96C62.2661 11.76 61.1995 12.84 60.3995 14.2C59.5995 15.5333 59.1995 17.0133 59.1995 18.64H49.4395C49.4395 15.12 50.2928 11.96 51.9995 9.15998C53.7061 6.33331 55.9595 4.10664 58.7595 2.47997C61.5861 0.82664 64.6795 -2.67029e-05 68.0395 -2.67029e-05C71.4528 -2.67029e-05 74.5595 0.839974 77.3595 2.51998C80.1595 4.17331 82.3995 6.41331 84.0795 9.23998C85.7595 12.0666 86.5995 15.2 86.5995 18.64C86.5995 20.4533 86.2661 22.28 85.5995 24.12C84.9328 25.96 83.9995 27.8133 82.7995 29.68C81.5995 31.5466 80.1861 33.44 78.5595 35.36C76.9328 37.2533 75.1328 39.2 73.1595 41.2C71.2128 43.1733 69.1595 45.2 66.9995 47.28H86.8795V57.04H49.1595Z" fill="#F3F3F3"/>
</svg>
