<svg width="85" height="59" viewBox="0 0 85 59" fill="none" xmlns="http://www.w3.org/2000/svg">
<path d="M21.8001 58.16C18.5468 58.16 15.5868 57.4133 12.9201 55.92C10.2534 54.4 7.94677 52.3067 6.0001 49.64C4.0801 46.9733 2.6001 43.8933 1.5601 40.4C0.520098 36.88 9.77516e-05 33.12 9.77516e-05 29.12C9.77516e-05 25.12 0.520098 21.3733 1.5601 17.88C2.6001 14.36 4.0801 11.2667 6.0001 8.59999C7.94677 5.93333 10.2534 3.85333 12.9201 2.35999C15.5868 0.839991 18.5468 0.0799904 21.8001 0.0799904C25.0534 0.0799904 28.0134 0.839991 30.6801 2.35999C33.3468 3.85333 35.6268 5.93333 37.5201 8.59999C39.4401 11.2667 40.9201 14.36 41.9601 17.88C43.0268 21.3733 43.5601 25.12 43.5601 29.12C43.5601 33.12 43.0268 36.88 41.9601 40.4C40.9201 43.8933 39.4401 46.9733 37.5201 49.64C35.6268 52.3067 33.3468 54.4 30.6801 55.92C28.0134 57.4133 25.0534 58.16 21.8001 58.16ZM21.8001 48.4C24.6534 48.4 27.0134 47.4933 28.8801 45.68C30.7468 43.8667 32.1334 41.4933 33.0401 38.56C33.9468 35.6267 34.4001 32.48 34.4001 29.12C34.4001 25.5733 33.9201 22.3467 32.9601 19.44C32.0001 16.5067 30.5868 14.1733 28.7201 12.44C26.8534 10.7067 24.5468 9.83999 21.8001 9.83999C19.6401 9.83999 17.7601 10.3733 16.1601 11.44C14.5868 12.48 13.2801 13.9067 12.2401 15.72C11.2001 17.5333 10.4268 19.6 9.9201 21.92C9.41343 24.2133 9.1601 26.6133 9.1601 29.12C9.1601 32.4533 9.61343 35.6 10.5201 38.56C11.4534 41.4933 12.8534 43.8667 14.7201 45.68C16.6134 47.4933 18.9734 48.4 21.8001 48.4ZM66.3995 58.16C63.0128 58.16 59.9595 57.36 57.2395 55.76C54.5195 54.16 52.3595 52.0133 50.7595 49.32C49.1595 46.6 48.3595 43.5867 48.3595 40.28H58.1195C58.1195 41.7733 58.4661 43.1333 59.1595 44.36C59.8795 45.5867 60.8661 46.5733 62.1195 47.32C63.3728 48.04 64.7995 48.4 66.3995 48.4C67.8661 48.4 69.2261 48.04 70.4795 47.32C71.7595 46.5733 72.7861 45.5867 73.5595 44.36C74.3328 43.1333 74.7195 41.7733 74.7195 40.28C74.7195 38.3333 74.1995 36.72 73.1595 35.44C72.1195 34.1333 70.6661 33.16 68.7995 32.52C66.9595 31.88 64.8128 31.56 62.3595 31.56V24.04C65.6661 24.04 68.2795 23.4133 70.1995 22.16C72.1461 20.9067 73.1195 19.0667 73.1195 16.64C73.1195 15.3867 72.7995 14.24 72.1595 13.2C71.5195 12.16 70.6661 11.3333 69.5995 10.72C68.5595 10.08 67.4128 9.75999 66.1595 9.75999C64.8795 9.75999 63.6395 10.08 62.4395 10.72C61.2395 11.3333 60.2528 12.16 59.4795 13.2C58.7328 14.24 58.3595 15.3867 58.3595 16.64H48.5995C48.5995 14.3467 49.0661 12.2 49.9995 10.2C50.9328 8.17333 52.2128 6.39999 53.8395 4.87999C55.4928 3.35999 57.3595 2.17333 59.4395 1.31999C61.5461 0.439991 63.7461 -8.58307e-06 66.0395 -8.58307e-06C69.0528 -8.58307e-06 71.8395 0.746658 74.3995 2.23999C76.9595 3.73332 79.0128 5.73333 80.5595 8.24C82.1061 10.7467 82.8795 13.5467 82.8795 16.64C82.8795 18.8 82.3728 20.92 81.3595 23C80.3461 25.08 78.9061 26.5467 77.0395 27.4C78.6661 27.9867 80.0261 28.9733 81.1195 30.36C82.2128 31.72 83.0395 33.28 83.5995 35.04C84.1861 36.7733 84.4795 38.52 84.4795 40.28C84.4795 43.56 83.6528 46.56 81.9995 49.28C80.3461 51.9733 78.1461 54.1333 75.3995 55.76C72.6795 57.36 69.6795 58.16 66.3995 58.16Z" fill="#F3F3F3"/>
</svg>
